<svg width="280" height="20" viewBox="0 0 280 20" fill="none" xmlns="http://www.w3.org/2000/svg">
<path d="M10.2977 3.63248L11.6177 6.27248C11.7977 6.63998 12.2777 6.99248 12.6827 7.05998L15.0752 7.45748C16.6052 7.71248 16.9652 8.82248 15.8627 9.91748L14.0027 11.7775C13.6877 12.0925 13.5152 12.7 13.6127 13.135L14.1452 15.4375C14.5652 17.26 13.5977 17.965 11.9852 17.0125L9.74268 15.685C9.33768 15.445 8.67018 15.445 8.25768 15.685L6.01518 17.0125C4.41018 17.965 3.43518 17.2525 3.85518 15.4375L4.38768 13.135C4.48518 12.7 4.31268 12.0925 3.99768 11.7775L2.13768 9.91748C1.04268 8.82248 1.39518 7.71248 2.92518 7.45748L5.31768 7.05998C5.71518 6.99248 6.19518 6.63998 6.37518 6.27248L7.69518 3.63248C8.41518 2.19998 9.58518 2.19998 10.2977 3.63248Z" fill="#FFCD1A"/>
<path d="M26.704 14C26.624 14 26.556 13.972 26.5 13.916C26.444 13.86 26.416 13.788 26.416 13.7V12.26H22.636C22.556 12.26 22.488 12.232 22.432 12.176C22.376 12.12 22.348 12.048 22.348 11.96V10.988C22.348 10.932 22.36 10.872 22.384 10.808C22.408 10.744 22.44 10.684 22.48 10.628L25.996 5.804C26.1 5.668 26.248 5.6 26.44 5.6H27.964C28.044 5.6 28.112 5.628 28.168 5.684C28.224 5.74 28.252 5.812 28.252 5.9V10.664H29.32C29.416 10.664 29.488 10.692 29.536 10.748C29.592 10.804 29.62 10.872 29.62 10.952V11.96C29.62 12.048 29.592 12.12 29.536 12.176C29.48 12.232 29.412 12.26 29.332 12.26H28.252V13.7C28.252 13.788 28.224 13.86 28.168 13.916C28.112 13.972 28.044 14 27.964 14H26.704ZM24.208 10.724H26.452V7.568L24.208 10.724ZM30.9424 14C30.8544 14 30.7824 13.972 30.7264 13.916C30.6704 13.86 30.6424 13.788 30.6424 13.7V12.356C30.6424 12.268 30.6704 12.196 30.7264 12.14C30.7824 12.084 30.8544 12.056 30.9424 12.056H32.2864C32.3744 12.056 32.4464 12.084 32.5024 12.14C32.5584 12.196 32.5864 12.268 32.5864 12.356V13.7C32.5864 13.788 32.5584 13.86 32.5024 13.916C32.4464 13.972 32.3744 14 32.2864 14H30.9424ZM37.1528 14.12C36.4488 14.12 35.8368 13.992 35.3168 13.736C34.8048 13.48 34.4048 13.128 34.1168 12.68C33.8368 12.224 33.6968 11.712 33.6968 11.144C33.6968 10.904 33.7328 10.664 33.8048 10.424C33.8768 10.184 33.9648 9.96 34.0688 9.752C34.1728 9.536 34.2768 9.344 34.3808 9.176C34.4928 9.008 34.5848 8.872 34.6568 8.768L36.8168 5.84C36.8568 5.8 36.9088 5.752 36.9728 5.696C37.0368 5.632 37.1248 5.6 37.2368 5.6H38.5808C38.6528 5.6 38.7128 5.628 38.7608 5.684C38.8088 5.732 38.8328 5.792 38.8328 5.864C38.8328 5.896 38.8288 5.928 38.8208 5.96C38.8128 5.984 38.8008 6.004 38.7848 6.02L37.1288 8.288C37.1928 8.272 37.2648 8.26 37.3448 8.252C37.4328 8.244 37.5088 8.24 37.5728 8.24C37.9568 8.256 38.3248 8.336 38.6768 8.48C39.0368 8.624 39.3568 8.824 39.6368 9.08C39.9168 9.328 40.1368 9.624 40.2968 9.968C40.4648 10.312 40.5488 10.696 40.5488 11.12C40.5488 11.656 40.4088 12.152 40.1288 12.608C39.8568 13.064 39.4648 13.432 38.9528 13.712C38.4488 13.984 37.8488 14.12 37.1528 14.12ZM37.1288 12.572C37.3928 12.572 37.6368 12.52 37.8608 12.416C38.0848 12.304 38.2648 12.14 38.4008 11.924C38.5368 11.708 38.6048 11.448 38.6048 11.144C38.6048 10.832 38.5368 10.572 38.4008 10.364C38.2648 10.148 38.0848 9.988 37.8608 9.884C37.6368 9.772 37.3928 9.716 37.1288 9.716C36.8648 9.716 36.6208 9.772 36.3968 9.884C36.1728 9.988 35.9928 10.148 35.8568 10.364C35.7208 10.572 35.6528 10.832 35.6528 11.144C35.6528 11.448 35.7208 11.708 35.8568 11.924C36.0008 12.14 36.1808 12.304 36.3968 12.416C36.6208 12.52 36.8648 12.572 37.1288 12.572Z" fill="#F9F9F9"/>
<path d="M46.104 16.496C46.024 16.496 45.956 16.468 45.9 16.412C45.844 16.356 45.816 16.288 45.816 16.208V3.536C45.816 3.456 45.844 3.388 45.9 3.332C45.956 3.276 46.024 3.248 46.104 3.248H46.884C46.964 3.248 47.032 3.276 47.088 3.332C47.144 3.388 47.172 3.456 47.172 3.536V16.208C47.172 16.288 47.144 16.356 47.088 16.412C47.032 16.468 46.964 16.496 46.884 16.496H46.104ZM50.9541 14C50.8901 14 50.8301 13.976 50.7741 13.928C50.7261 13.88 50.7021 13.82 50.7021 13.748C50.7021 13.716 50.7101 13.68 50.7261 13.64L53.6181 5.9C53.6421 5.82 53.6861 5.752 53.7501 5.696C53.8221 5.632 53.9181 5.6 54.0381 5.6H55.3461C55.4661 5.6 55.5581 5.632 55.6221 5.696C55.6861 5.752 55.7341 5.82 55.7661 5.9L58.6581 13.64C58.6661 13.68 58.6701 13.716 58.6701 13.748C58.6701 13.82 58.6461 13.88 58.5981 13.928C58.5501 13.976 58.4941 14 58.4301 14H57.3861C57.2741 14 57.1901 13.976 57.1341 13.928C57.0861 13.872 57.0541 13.82 57.0381 13.772L56.4741 12.308H52.9101L52.3461 13.772C52.3301 13.82 52.2941 13.872 52.2381 13.928C52.1901 13.976 52.1101 14 51.9981 14H50.9541ZM53.3301 10.928H56.0541L54.6861 7.22L53.3301 10.928ZM62.3361 14.12C61.7601 14.12 61.2521 14.012 60.8121 13.796C60.3801 13.58 60.0401 13.268 59.7921 12.86C59.5521 12.444 59.4201 11.944 59.3961 11.36C59.3881 11.24 59.3841 11.084 59.3841 10.892C59.3841 10.692 59.3881 10.528 59.3961 10.4C59.4201 9.816 59.5521 9.32 59.7921 8.912C60.0401 8.496 60.3801 8.18 60.8121 7.964C61.2521 7.748 61.7601 7.64 62.3361 7.64C62.8481 7.64 63.2841 7.712 63.6441 7.856C64.0041 8 64.3001 8.18 64.5321 8.396C64.7641 8.612 64.9361 8.84 65.0481 9.08C65.1681 9.312 65.2321 9.524 65.2401 9.716C65.2481 9.804 65.2201 9.876 65.1561 9.932C65.1001 9.98 65.0321 10.004 64.9521 10.004H63.8961C63.8161 10.004 63.7521 9.984 63.7041 9.944C63.6641 9.904 63.6241 9.844 63.5841 9.764C63.4641 9.444 63.3041 9.22 63.1041 9.092C62.9121 8.956 62.6641 8.888 62.3601 8.888C61.9601 8.888 61.6401 9.016 61.4001 9.272C61.1681 9.52 61.0441 9.916 61.0281 10.46C61.0121 10.764 61.0121 11.044 61.0281 11.3C61.0441 11.852 61.1681 12.252 61.4001 12.5C61.6401 12.748 61.9601 12.872 62.3601 12.872C62.6721 12.872 62.9241 12.808 63.1161 12.68C63.3081 12.544 63.4641 12.316 63.5841 11.996C63.6241 11.916 63.6641 11.856 63.7041 11.816C63.7521 11.776 63.8161 11.756 63.8961 11.756H64.9521C65.0321 11.756 65.1001 11.784 65.1561 11.84C65.2201 11.888 65.2481 11.956 65.2401 12.044C65.2321 12.188 65.1921 12.352 65.1201 12.536C65.0561 12.712 64.9481 12.896 64.7961 13.088C64.6521 13.272 64.4681 13.444 64.2441 13.604C64.0201 13.756 63.7481 13.88 63.4281 13.976C63.1161 14.072 62.7521 14.12 62.3361 14.12ZM69.3715 14C68.8915 14 68.4875 13.916 68.1595 13.748C67.8315 13.58 67.5875 13.332 67.4275 13.004C67.2675 12.668 67.1875 12.252 67.1875 11.756V9.032H66.2395C66.1595 9.032 66.0915 9.004 66.0355 8.948C65.9795 8.892 65.9515 8.824 65.9515 8.744V8.048C65.9515 7.968 65.9795 7.9 66.0355 7.844C66.0915 7.788 66.1595 7.76 66.2395 7.76H67.1875V5.768C67.1875 5.688 67.2115 5.62 67.2595 5.564C67.3155 5.508 67.3875 5.48 67.4755 5.48H68.4475C68.5275 5.48 68.5955 5.508 68.6515 5.564C68.7075 5.62 68.7355 5.688 68.7355 5.768V7.76H70.2355C70.3155 7.76 70.3835 7.788 70.4395 7.844C70.4955 7.9 70.5235 7.968 70.5235 8.048V8.744C70.5235 8.824 70.4955 8.892 70.4395 8.948C70.3835 9.004 70.3155 9.032 70.2355 9.032H68.7355V11.636C68.7355 11.964 68.7915 12.22 68.9035 12.404C69.0235 12.588 69.2275 12.68 69.5155 12.68H70.3435C70.4235 12.68 70.4915 12.708 70.5475 12.764C70.6035 12.82 70.6315 12.888 70.6315 12.968V13.712C70.6315 13.792 70.6035 13.86 70.5475 13.916C70.4915 13.972 70.4235 14 70.3435 14H69.3715ZM72.0441 14C71.9641 14 71.8961 13.972 71.8401 13.916C71.7841 13.86 71.7561 13.792 71.7561 13.712V8.048C71.7561 7.968 71.7841 7.9 71.8401 7.844C71.8961 7.788 71.9641 7.76 72.0441 7.76H73.0401C73.1281 7.76 73.1961 7.788 73.2441 7.844C73.3001 7.9 73.3281 7.968 73.3281 8.048V13.712C73.3281 13.792 73.3001 13.86 73.2441 13.916C73.1961 13.972 73.1281 14 73.0401 14H72.0441ZM71.9961 6.728C71.9081 6.728 71.8361 6.704 71.7801 6.656C71.7321 6.6 71.7081 6.528 71.7081 6.44V5.576C71.7081 5.496 71.7321 5.428 71.7801 5.372C71.8361 5.316 71.9081 5.288 71.9961 5.288H73.0881C73.1761 5.288 73.2481 5.316 73.3041 5.372C73.3601 5.428 73.3881 5.496 73.3881 5.576V6.44C73.3881 6.528 73.3601 6.6 73.3041 6.656C73.2481 6.704 73.1761 6.728 73.0881 6.728H71.9961ZM77.7753 14.12C77.1353 14.12 76.5953 14.008 76.1553 13.784C75.7233 13.56 75.3913 13.244 75.1593 12.836C74.9353 12.428 74.8073 11.952 74.7753 11.408C74.7673 11.264 74.7633 11.088 74.7633 10.88C74.7633 10.672 74.7673 10.496 74.7753 10.352C74.8073 9.8 74.9393 9.324 75.1713 8.924C75.4113 8.516 75.7473 8.2 76.1793 7.976C76.6193 7.752 77.1513 7.64 77.7753 7.64C78.3993 7.64 78.9273 7.752 79.3593 7.976C79.7993 8.2 80.1353 8.516 80.3673 8.924C80.6073 9.324 80.7433 9.8 80.7753 10.352C80.7833 10.496 80.7873 10.672 80.7873 10.88C80.7873 11.088 80.7833 11.264 80.7753 11.408C80.7433 11.952 80.6113 12.428 80.3793 12.836C80.1553 13.244 79.8233 13.56 79.3833 13.784C78.9513 14.008 78.4153 14.12 77.7753 14.12ZM77.7753 12.932C78.1993 12.932 78.5273 12.8 78.7593 12.536C78.9913 12.264 79.1193 11.868 79.1433 11.348C79.1513 11.228 79.1553 11.072 79.1553 10.88C79.1553 10.688 79.1513 10.532 79.1433 10.412C79.1193 9.9 78.9913 9.508 78.7593 9.236C78.5273 8.964 78.1993 8.828 77.7753 8.828C77.3513 8.828 77.0233 8.964 76.7913 9.236C76.5593 9.508 76.4313 9.9 76.4073 10.412C76.3993 10.532 76.3953 10.688 76.3953 10.88C76.3953 11.072 76.3993 11.228 76.4073 11.348C76.4313 11.868 76.5593 12.264 76.7913 12.536C77.0233 12.8 77.3513 12.932 77.7753 12.932ZM82.4648 14C82.3848 14 82.3168 13.972 82.2608 13.916C82.2048 13.86 82.1768 13.792 82.1768 13.712V8.048C82.1768 7.968 82.2048 7.9 82.2608 7.844C82.3168 7.788 82.3848 7.76 82.4648 7.76H83.4488C83.5288 7.76 83.5968 7.788 83.6528 7.844C83.7088 7.9 83.7368 7.968 83.7368 8.048V8.54C83.9448 8.284 84.2088 8.072 84.5288 7.904C84.8568 7.728 85.2608 7.64 85.7408 7.64C86.2288 7.64 86.6528 7.752 87.0128 7.976C87.3728 8.192 87.6488 8.5 87.8408 8.9C88.0408 9.3 88.1408 9.78 88.1408 10.34V13.712C88.1408 13.792 88.1128 13.86 88.0568 13.916C88.0008 13.972 87.9328 14 87.8528 14H86.7968C86.7168 14 86.6488 13.972 86.5928 13.916C86.5368 13.86 86.5088 13.792 86.5088 13.712V10.412C86.5088 9.948 86.3928 9.584 86.1608 9.32C85.9368 9.056 85.6088 8.924 85.1768 8.924C84.7608 8.924 84.4288 9.056 84.1808 9.32C83.9328 9.584 83.8088 9.948 83.8088 10.412V13.712C83.8088 13.792 83.7808 13.86 83.7248 13.916C83.6688 13.972 83.6008 14 83.5208 14H82.4648ZM94.0393 11.552C93.7833 11.552 93.5473 11.492 93.3313 11.372C93.1233 11.244 92.9553 11.072 92.8273 10.856C92.6993 10.64 92.6353 10.408 92.6353 10.16C92.6353 9.896 92.6993 9.66 92.8273 9.452C92.9553 9.244 93.1233 9.076 93.3313 8.948C93.5473 8.82 93.7833 8.756 94.0393 8.756C94.2953 8.756 94.5273 8.82 94.7353 8.948C94.9433 9.076 95.1113 9.244 95.2393 9.452C95.3673 9.66 95.4313 9.896 95.4313 10.16C95.4313 10.408 95.3673 10.64 95.2393 10.856C95.1113 11.072 94.9433 11.244 94.7353 11.372C94.5273 11.492 94.2953 11.552 94.0393 11.552ZM100.427 14C100.339 14 100.267 13.972 100.211 13.916C100.155 13.86 100.127 13.792 100.127 13.712V5.9C100.127 5.812 100.155 5.74 100.211 5.684C100.267 5.628 100.339 5.6 100.427 5.6H101.375C101.487 5.6 101.571 5.632 101.627 5.696C101.683 5.752 101.719 5.796 101.735 5.828L104.051 10.148L106.391 5.828C106.407 5.796 106.443 5.752 106.499 5.696C106.555 5.632 106.639 5.6 106.751 5.6H107.687C107.775 5.6 107.847 5.628 107.903 5.684C107.959 5.74 107.987 5.812 107.987 5.9V13.712C107.987 13.792 107.959 13.86 107.903 13.916C107.847 13.972 107.775 14 107.687 14H106.679C106.591 14 106.519 13.972 106.463 13.916C106.415 13.86 106.391 13.792 106.391 13.712V8.516L104.711 11.72C104.671 11.792 104.619 11.856 104.555 11.912C104.491 11.96 104.407 11.984 104.303 11.984H103.811C103.699 11.984 103.611 11.96 103.547 11.912C103.491 11.856 103.443 11.792 103.403 11.72L101.723 8.516V13.712C101.723 13.792 101.695 13.86 101.639 13.916C101.583 13.972 101.515 14 101.435 14H100.427ZM112.53 14.12C111.89 14.12 111.35 14.008 110.91 13.784C110.478 13.56 110.146 13.244 109.914 12.836C109.69 12.428 109.562 11.952 109.53 11.408C109.522 11.264 109.518 11.088 109.518 10.88C109.518 10.672 109.522 10.496 109.53 10.352C109.562 9.8 109.694 9.324 109.926 8.924C110.166 8.516 110.502 8.2 110.934 7.976C111.374 7.752 111.906 7.64 112.53 7.64C113.154 7.64 113.682 7.752 114.114 7.976C114.554 8.2 114.89 8.516 115.122 8.924C115.362 9.324 115.498 9.8 115.53 10.352C115.538 10.496 115.542 10.672 115.542 10.88C115.542 11.088 115.538 11.264 115.53 11.408C115.498 11.952 115.366 12.428 115.134 12.836C114.91 13.244 114.578 13.56 114.138 13.784C113.706 14.008 113.17 14.12 112.53 14.12ZM112.53 12.932C112.954 12.932 113.282 12.8 113.514 12.536C113.746 12.264 113.874 11.868 113.898 11.348C113.906 11.228 113.91 11.072 113.91 10.88C113.91 10.688 113.906 10.532 113.898 10.412C113.874 9.9 113.746 9.508 113.514 9.236C113.282 8.964 112.954 8.828 112.53 8.828C112.106 8.828 111.778 8.964 111.546 9.236C111.314 9.508 111.186 9.9 111.162 10.412C111.154 10.532 111.15 10.688 111.15 10.88C111.15 11.072 111.154 11.228 111.162 11.348C111.186 11.868 111.314 12.264 111.546 12.536C111.778 12.8 112.106 12.932 112.53 12.932ZM118.917 14C118.789 14 118.693 13.972 118.629 13.916C118.573 13.852 118.525 13.78 118.485 13.7L116.241 8.132C116.225 8.092 116.217 8.056 116.217 8.024C116.217 7.952 116.241 7.892 116.289 7.844C116.345 7.788 116.409 7.76 116.481 7.76H117.453C117.549 7.76 117.621 7.788 117.669 7.844C117.717 7.892 117.749 7.94 117.765 7.988L119.361 12.2L120.957 7.988C120.973 7.94 121.005 7.892 121.053 7.844C121.101 7.788 121.173 7.76 121.269 7.76H122.253C122.317 7.76 122.373 7.788 122.421 7.844C122.477 7.892 122.505 7.952 122.505 8.024C122.505 8.056 122.501 8.092 122.493 8.132L120.237 13.7C120.205 13.78 120.157 13.852 120.093 13.916C120.029 13.972 119.933 14 119.805 14H118.917ZM123.947 14C123.867 14 123.799 13.972 123.743 13.916C123.687 13.86 123.659 13.792 123.659 13.712V8.048C123.659 7.968 123.687 7.9 123.743 7.844C123.799 7.788 123.867 7.76 123.947 7.76H124.943C125.031 7.76 125.099 7.788 125.147 7.844C125.203 7.9 125.231 7.968 125.231 8.048V13.712C125.231 13.792 125.203 13.86 125.147 13.916C125.099 13.972 125.031 14 124.943 14H123.947ZM123.899 6.728C123.811 6.728 123.739 6.704 123.683 6.656C123.635 6.6 123.611 6.528 123.611 6.44V5.576C123.611 5.496 123.635 5.428 123.683 5.372C123.739 5.316 123.811 5.288 123.899 5.288H124.991C125.079 5.288 125.151 5.316 125.207 5.372C125.263 5.428 125.291 5.496 125.291 5.576V6.44C125.291 6.528 125.263 6.6 125.207 6.656C125.151 6.704 125.079 6.728 124.991 6.728H123.899ZM129.607 14.12C128.719 14.12 128.015 13.864 127.495 13.352C126.975 12.84 126.695 12.112 126.655 11.168C126.647 11.088 126.643 10.988 126.643 10.868C126.643 10.74 126.647 10.64 126.655 10.568C126.687 9.968 126.823 9.448 127.063 9.008C127.311 8.568 127.651 8.232 128.083 8C128.515 7.76 129.023 7.64 129.607 7.64C130.255 7.64 130.799 7.776 131.239 8.048C131.679 8.312 132.011 8.684 132.235 9.164C132.459 9.636 132.571 10.184 132.571 10.808V11.06C132.571 11.14 132.543 11.208 132.487 11.264C132.431 11.32 132.359 11.348 132.271 11.348H128.287C128.287 11.348 128.287 11.36 128.287 11.384C128.287 11.408 128.287 11.428 128.287 11.444C128.295 11.724 128.347 11.984 128.443 12.224C128.547 12.456 128.695 12.644 128.887 12.788C129.087 12.932 129.323 13.004 129.595 13.004C129.819 13.004 130.007 12.972 130.159 12.908C130.311 12.836 130.435 12.756 130.531 12.668C130.627 12.58 130.695 12.508 130.735 12.452C130.807 12.356 130.863 12.3 130.903 12.284C130.951 12.26 131.019 12.248 131.107 12.248H132.139C132.219 12.248 132.283 12.272 132.331 12.32C132.387 12.368 132.411 12.428 132.403 12.5C132.395 12.628 132.327 12.784 132.199 12.968C132.079 13.152 131.903 13.332 131.671 13.508C131.439 13.684 131.147 13.832 130.795 13.952C130.451 14.064 130.055 14.12 129.607 14.12ZM128.287 10.34H130.939V10.304C130.939 9.992 130.887 9.72 130.783 9.488C130.679 9.256 130.527 9.072 130.327 8.936C130.127 8.8 129.887 8.732 129.607 8.732C129.327 8.732 129.087 8.8 128.887 8.936C128.687 9.072 128.535 9.256 128.431 9.488C128.335 9.72 128.287 9.992 128.287 10.304V10.34Z" fill="#78828A"/>
</svg>
