<svg width="262" height="20" viewBox="0 0 262 20" fill="none" xmlns="http://www.w3.org/2000/svg">
<path d="M3.87784 14.1193C3.29261 14.1193 2.76989 14.0185 2.30966 13.8168C1.85227 13.6151 1.49006 13.3352 1.22301 12.9773C0.958807 12.6165 0.816761 12.1989 0.796875 11.7244H2.13494C2.15199 11.983 2.23864 12.2074 2.39489 12.3977C2.55398 12.5852 2.76136 12.7301 3.01705 12.8324C3.27273 12.9347 3.55682 12.9858 3.86932 12.9858C4.21307 12.9858 4.51705 12.9261 4.78125 12.8068C5.0483 12.6875 5.2571 12.5213 5.40767 12.3082C5.55824 12.0923 5.63352 11.8438 5.63352 11.5625C5.63352 11.2699 5.55824 11.0128 5.40767 10.7912C5.25994 10.5668 5.04261 10.3906 4.75568 10.2628C4.47159 10.1349 4.12784 10.071 3.72443 10.071H2.98722V8.99716H3.72443C4.0483 8.99716 4.33239 8.93892 4.5767 8.82244C4.82386 8.70597 5.01705 8.54403 5.15625 8.33665C5.29545 8.12642 5.36506 7.88068 5.36506 7.59943C5.36506 7.32955 5.30398 7.09517 5.18182 6.89631C5.0625 6.6946 4.89205 6.53693 4.67045 6.4233C4.4517 6.30966 4.19318 6.25284 3.89489 6.25284C3.6108 6.25284 3.34517 6.3054 3.09801 6.41051C2.85369 6.51278 2.65483 6.66051 2.50142 6.85369C2.34801 7.04403 2.26563 7.27273 2.25426 7.53977H0.980114C0.994318 7.06818 1.13352 6.65341 1.39773 6.29545C1.66477 5.9375 2.01705 5.65767 2.45455 5.45597C2.89205 5.25426 3.37784 5.15341 3.91193 5.15341C4.47159 5.15341 4.95455 5.26278 5.3608 5.48153C5.76989 5.69744 6.08523 5.9858 6.30682 6.34659C6.53125 6.70739 6.64205 7.10227 6.6392 7.53125C6.64205 8.01989 6.50568 8.43466 6.23011 8.77557C5.95739 9.11648 5.59375 9.34517 5.1392 9.46165V9.52983C5.71875 9.6179 6.16761 9.84801 6.4858 10.2202C6.80682 10.5923 6.96591 11.054 6.96307 11.6051C6.96591 12.0852 6.83239 12.5156 6.5625 12.8963C6.29545 13.277 5.9304 13.5767 5.46733 13.7955C5.00426 14.0114 4.47443 14.1193 3.87784 14.1193ZM8.45062 12.2955V11.2301L12.2219 5.27273H13.0614V6.84091H12.5287L9.83131 11.1108V11.179H15.0003V12.2955H8.45062ZM12.5884 14V11.9716L12.5969 11.4858V5.27273H13.8455V14H12.5884ZM20.6377 12.9176C20.4048 12.9176 20.2045 12.8352 20.0369 12.6705C19.8693 12.5028 19.7855 12.3011 19.7855 12.0653C19.7855 11.8324 19.8693 11.6335 20.0369 11.4688C20.2045 11.3011 20.4048 11.2173 20.6377 11.2173C20.8707 11.2173 21.071 11.3011 21.2386 11.4688C21.4062 11.6335 21.49 11.8324 21.49 12.0653C21.49 12.2216 21.4502 12.3651 21.3707 12.4957C21.294 12.6236 21.1917 12.7259 21.0639 12.8026C20.936 12.8793 20.794 12.9176 20.6377 12.9176ZM20.6377 8.54545C20.4048 8.54545 20.2045 8.46307 20.0369 8.2983C19.8693 8.13068 19.7855 7.92898 19.7855 7.69318C19.7855 7.46023 19.8693 7.26136 20.0369 7.09659C20.2045 6.92898 20.4048 6.84517 20.6377 6.84517C20.8707 6.84517 21.071 6.92898 21.2386 7.09659C21.4062 7.26136 21.49 7.46023 21.49 7.69318C21.49 7.84943 21.4502 7.9929 21.3707 8.12358C21.294 8.25142 21.1917 8.35369 21.0639 8.4304C20.936 8.5071 20.794 8.54545 20.6377 8.54545ZM29.5138 14.1449C28.8405 14.142 28.2652 13.9645 27.7879 13.6122C27.3107 13.2599 26.9456 12.7472 26.6928 12.0739C26.4399 11.4006 26.3135 10.5895 26.3135 9.64062C26.3135 8.6946 26.4399 7.88636 26.6928 7.21591C26.9484 6.54545 27.3149 6.03409 27.7922 5.68182C28.2723 5.32955 28.8462 5.15341 29.5138 5.15341C30.1814 5.15341 30.7538 5.33097 31.2311 5.68608C31.7084 6.03835 32.0734 6.54972 32.3263 7.22017C32.582 7.88778 32.7098 8.6946 32.7098 9.64062C32.7098 10.5923 32.5834 11.4048 32.3305 12.0781C32.0777 12.7486 31.7126 13.2614 31.2354 13.6165C30.7581 13.9688 30.1842 14.1449 29.5138 14.1449ZM29.5138 13.0071C30.1047 13.0071 30.5663 12.7188 30.8987 12.142C31.2339 11.5653 31.4016 10.7315 31.4016 9.64062C31.4016 8.91619 31.3249 8.30398 31.1714 7.80398C31.0209 7.30114 30.8036 6.92045 30.5195 6.66193C30.2382 6.40057 29.903 6.26989 29.5138 6.26989C28.9257 6.26989 28.4641 6.55966 28.1288 7.1392C27.7936 7.71875 27.6246 8.55256 27.6217 9.64062C27.6217 10.3679 27.697 10.983 27.8476 11.4858C28.001 11.9858 28.2183 12.3651 28.4996 12.6236C28.7808 12.8793 29.1189 13.0071 29.5138 13.0071ZM37.1622 14.1193C36.6281 14.1193 36.148 14.017 35.7219 13.8125C35.2986 13.6051 34.9605 13.321 34.7077 12.9602C34.4548 12.5994 34.3199 12.1875 34.3028 11.7244H35.5812C35.6125 12.0994 35.7787 12.4077 36.0798 12.6491C36.381 12.8906 36.7417 13.0114 37.1622 13.0114C37.4974 13.0114 37.7943 12.9347 38.0528 12.7812C38.3142 12.625 38.5187 12.4105 38.6665 12.1378C38.817 11.8651 38.8923 11.554 38.8923 11.2045C38.8923 10.8494 38.8156 10.5327 38.6622 10.2543C38.5088 9.97585 38.2971 9.7571 38.0273 9.59801C37.7602 9.43892 37.4534 9.35795 37.1068 9.35511C36.8426 9.35511 36.577 9.40057 36.3099 9.49148C36.0429 9.58239 35.827 9.7017 35.6622 9.84943L34.4562 9.67045L34.9463 5.27273H39.7446V6.40199H36.0415L35.7645 8.84375H35.8156C35.9861 8.67898 36.2119 8.54119 36.4932 8.4304C36.7773 8.3196 37.0812 8.2642 37.4051 8.2642C37.9364 8.2642 38.4094 8.39062 38.8241 8.64347C39.2417 8.89631 39.5699 9.24148 39.8085 9.67898C40.05 10.1136 40.1693 10.6136 40.1665 11.179C40.1693 11.7443 40.0415 12.2486 39.7829 12.6918C39.5273 13.1349 39.1721 13.4844 38.7176 13.7401C38.2659 13.9929 37.7474 14.1193 37.1622 14.1193Z" fill="#D1D8DD"/>
<path opacity="0.12" d="M49 10L188 10" stroke="#F9F9F9" stroke-width="6" stroke-linecap="round"/>
<path opacity="0.16" d="M49 10L144.154 10" stroke="#F9F9F9" stroke-width="6" stroke-linecap="round"/>
<path d="M49 10L113.369 10" stroke="#00925D" stroke-width="6" stroke-linecap="round"/>
<circle cx="119" cy="10" r="5" fill="#00925D"/>
<path d="M199.878 14.1449C199.205 14.142 198.629 13.9645 198.152 13.6122C197.675 13.2599 197.31 12.7472 197.057 12.0739C196.804 11.4006 196.678 10.5895 196.678 9.64062C196.678 8.6946 196.804 7.88636 197.057 7.21591C197.313 6.54545 197.679 6.03409 198.156 5.68182C198.636 5.32955 199.21 5.15341 199.878 5.15341C200.545 5.15341 201.118 5.33097 201.595 5.68608C202.072 6.03835 202.438 6.54972 202.69 7.22017C202.946 7.88778 203.074 8.6946 203.074 9.64062C203.074 10.5923 202.947 11.4048 202.695 12.0781C202.442 12.7486 202.077 13.2614 201.599 13.6165C201.122 13.9688 200.548 14.1449 199.878 14.1449ZM199.878 13.0071C200.469 13.0071 200.93 12.7188 201.263 12.142C201.598 11.5653 201.766 10.7315 201.766 9.64062C201.766 8.91619 201.689 8.30398 201.536 7.80398C201.385 7.30114 201.168 6.92045 200.884 6.66193C200.602 6.40057 200.267 6.26989 199.878 6.26989C199.29 6.26989 198.828 6.55966 198.493 7.1392C198.158 7.71875 197.989 8.55256 197.986 9.64062C197.986 10.3679 198.061 10.983 198.212 11.4858C198.365 11.9858 198.582 12.3651 198.864 12.6236C199.145 12.8793 199.483 13.0071 199.878 13.0071ZM207.684 14.1449C207.011 14.142 206.435 13.9645 205.958 13.6122C205.481 13.2599 205.116 12.7472 204.863 12.0739C204.61 11.4006 204.484 10.5895 204.484 9.64062C204.484 8.6946 204.61 7.88636 204.863 7.21591C205.119 6.54545 205.485 6.03409 205.962 5.68182C206.442 5.32955 207.016 5.15341 207.684 5.15341C208.352 5.15341 208.924 5.33097 209.401 5.68608C209.879 6.03835 210.244 6.54972 210.496 7.22017C210.752 7.88778 210.88 8.6946 210.88 9.64062C210.88 10.5923 210.754 11.4048 210.501 12.0781C210.248 12.7486 209.883 13.2614 209.406 13.6165C208.928 13.9688 208.354 14.1449 207.684 14.1449ZM207.684 13.0071C208.275 13.0071 208.736 12.7188 209.069 12.142C209.404 11.5653 209.572 10.7315 209.572 9.64062C209.572 8.91619 209.495 8.30398 209.342 7.80398C209.191 7.30114 208.974 6.92045 208.69 6.66193C208.408 6.40057 208.073 6.26989 207.684 6.26989C207.096 6.26989 206.634 6.55966 206.299 7.1392C205.964 7.71875 205.795 8.55256 205.792 9.64062C205.792 10.3679 205.867 10.983 206.018 11.4858C206.171 11.9858 206.388 12.3651 206.67 12.6236C206.951 12.8793 207.289 13.0071 207.684 13.0071ZM216.544 12.9176C216.311 12.9176 216.111 12.8352 215.943 12.6705C215.776 12.5028 215.692 12.3011 215.692 12.0653C215.692 11.8324 215.776 11.6335 215.943 11.4688C216.111 11.3011 216.311 11.2173 216.544 11.2173C216.777 11.2173 216.977 11.3011 217.145 11.4688C217.312 11.6335 217.396 11.8324 217.396 12.0653C217.396 12.2216 217.356 12.3651 217.277 12.4957C217.2 12.6236 217.098 12.7259 216.97 12.8026C216.842 12.8793 216.7 12.9176 216.544 12.9176ZM216.544 8.54545C216.311 8.54545 216.111 8.46307 215.943 8.2983C215.776 8.13068 215.692 7.92898 215.692 7.69318C215.692 7.46023 215.776 7.26136 215.943 7.09659C216.111 6.92898 216.311 6.84517 216.544 6.84517C216.777 6.84517 216.977 6.92898 217.145 7.09659C217.312 7.26136 217.396 7.46023 217.396 7.69318C217.396 7.84943 217.356 7.9929 217.277 8.12358C217.2 8.25142 217.098 8.35369 216.97 8.4304C216.842 8.5071 216.7 8.54545 216.544 8.54545ZM225.262 14.1193C224.728 14.1193 224.248 14.017 223.822 13.8125C223.399 13.6051 223.061 13.321 222.808 12.9602C222.555 12.5994 222.42 12.1875 222.403 11.7244H223.681C223.713 12.0994 223.879 12.4077 224.18 12.6491C224.481 12.8906 224.842 13.0114 225.262 13.0114C225.598 13.0114 225.894 12.9347 226.153 12.7812C226.414 12.625 226.619 12.4105 226.767 12.1378C226.917 11.8651 226.992 11.554 226.992 11.2045C226.992 10.8494 226.916 10.5327 226.762 10.2543C226.609 9.97585 226.397 9.7571 226.127 9.59801C225.86 9.43892 225.554 9.35795 225.207 9.35511C224.943 9.35511 224.677 9.40057 224.41 9.49148C224.143 9.58239 223.927 9.7017 223.762 9.84943L222.556 9.67045L223.046 5.27273H227.845V6.40199H224.142L223.865 8.84375H223.916C224.086 8.67898 224.312 8.54119 224.593 8.4304C224.877 8.3196 225.181 8.2642 225.505 8.2642C226.037 8.2642 226.51 8.39062 226.924 8.64347C227.342 8.89631 227.67 9.24148 227.909 9.67898C228.15 10.1136 228.269 10.6136 228.267 11.179C228.269 11.7443 228.142 12.2486 227.883 12.6918C227.627 13.1349 227.272 13.4844 226.818 13.7401C226.366 13.9929 225.848 14.1193 225.262 14.1193ZM230.177 14L233.987 6.46591V6.40199H229.581V5.27273H235.35V6.44034L231.554 14H230.177ZM240.985 12.9176C240.752 12.9176 240.551 12.8352 240.384 12.6705C240.216 12.5028 240.132 12.3011 240.132 12.0653C240.132 11.8324 240.216 11.6335 240.384 11.4688C240.551 11.3011 240.752 11.2173 240.985 11.2173C241.218 11.2173 241.418 11.3011 241.585 11.4688C241.753 11.6335 241.837 11.8324 241.837 12.0653C241.837 12.2216 241.797 12.3651 241.718 12.4957C241.641 12.6236 241.539 12.7259 241.411 12.8026C241.283 12.8793 241.141 12.9176 240.985 12.9176ZM240.985 8.54545C240.752 8.54545 240.551 8.46307 240.384 8.2983C240.216 8.13068 240.132 7.92898 240.132 7.69318C240.132 7.46023 240.216 7.26136 240.384 7.09659C240.551 6.92898 240.752 6.84517 240.985 6.84517C241.218 6.84517 241.418 6.92898 241.585 7.09659C241.753 7.26136 241.837 7.46023 241.837 7.69318C241.837 7.84943 241.797 7.9929 241.718 8.12358C241.641 8.25142 241.539 8.35369 241.411 8.4304C241.283 8.5071 241.141 8.54545 240.985 8.54545ZM246.639 12.2955V11.2301L250.41 5.27273H251.25V6.84091H250.717L248.02 11.1108V11.179H253.189V12.2955H246.639ZM250.777 14V11.9716L250.785 11.4858V5.27273H252.034V14H250.777ZM257.615 14.1193C257.08 14.1193 256.6 14.017 256.174 13.8125C255.751 13.6051 255.413 13.321 255.16 12.9602C254.907 12.5994 254.772 12.1875 254.755 11.7244H256.034C256.065 12.0994 256.231 12.4077 256.532 12.6491C256.833 12.8906 257.194 13.0114 257.615 13.0114C257.95 13.0114 258.247 12.9347 258.505 12.7812C258.767 12.625 258.971 12.4105 259.119 12.1378C259.269 11.8651 259.345 11.554 259.345 11.2045C259.345 10.8494 259.268 10.5327 259.115 10.2543C258.961 9.97585 258.749 9.7571 258.48 9.59801C258.213 9.43892 257.906 9.35795 257.559 9.35511C257.295 9.35511 257.029 9.40057 256.762 9.49148C256.495 9.58239 256.279 9.7017 256.115 9.84943L254.909 9.67045L255.399 5.27273H260.197V6.40199H256.494L256.217 8.84375H256.268C256.438 8.67898 256.664 8.54119 256.946 8.4304C257.23 8.3196 257.534 8.2642 257.857 8.2642C258.389 8.2642 258.862 8.39062 259.276 8.64347C259.694 8.89631 260.022 9.24148 260.261 9.67898C260.502 10.1136 260.622 10.6136 260.619 11.179C260.622 11.7443 260.494 12.2486 260.235 12.6918C259.98 13.1349 259.624 13.4844 259.17 13.7401C258.718 13.9929 258.2 14.1193 257.615 14.1193Z" fill="#D1D8DD"/>
</svg>
