<svg width="20" height="20" viewBox="0 0 20 20" fill="none" xmlns="http://www.w3.org/2000/svg">
<path d="M18.6 10C18.6 14.7497 14.7497 18.6 10 18.6C5.25038 18.6 1.40002 14.7497 1.40002 10C1.40002 5.25038 5.25038 1.40002 10 1.40002C14.7497 1.40002 18.6 5.25038 18.6 10ZM10.0204 5.76952C9.34528 5.31946 8.47728 5.2775 7.76194 5.66034C7.04659 6.04318 6.60002 6.78868 6.60002 7.60003V12.4C6.60002 13.2114 7.04659 13.9569 7.76194 14.3397C8.47728 14.7226 9.34528 14.6806 10.0204 14.2305L13.6204 11.8305C14.2324 11.4225 14.6 10.7356 14.6 10C14.6 9.26445 14.2324 8.57754 13.6204 8.16952L10.0204 5.76952Z" fill="white" stroke="white" stroke-width="2"/>
</svg>
