<svg width="8" height="15" viewBox="0 0 8 15" fill="none" xmlns="http://www.w3.org/2000/svg">
<path d="M1.42501 14.725C1.26668 14.725 1.10834 14.6667 0.983343 14.5417C0.741677 14.3 0.741677 13.9 0.983343 13.6583L6.41668 8.22502C6.81668 7.82502 6.81668 7.17502 6.41668 6.77502L0.983343 1.34168C0.741677 1.10002 0.741677 0.700016 0.983343 0.45835C1.22501 0.216683 1.62501 0.216683 1.86668 0.45835L7.30001 5.89168C7.72501 6.31668 7.96668 6.89168 7.96668 7.50002C7.96668 8.10835 7.73334 8.68335 7.30001 9.10835L1.86668 14.5417C1.74168 14.6583 1.58334 14.725 1.42501 14.725Z" fill="#F9F9F9"/>
</svg>
